<svg id="visual" viewBox="0 0 624 294" width="624" height="294" xmlns="http://www.w3.org/2000/svg" xmlns:xlink="http://www.w3.org/1999/xlink" version="1.1"><rect x="0" y="0" width="624" height="294" fill="#171717"></rect><defs><linearGradient id="grad1_0" x1="52.9%" y1="100%" x2="100%" y2="0%"><stop offset="7.5510204081632635%" stop-color="#171717" stop-opacity="1"></stop><stop offset="92.44897959183673%" stop-color="#171717" stop-opacity="1"></stop></linearGradient></defs><defs><linearGradient id="grad2_0" x1="0%" y1="100%" x2="47.1%" y2="0%"><stop offset="7.5510204081632635%" stop-color="#171717" stop-opacity="1"></stop><stop offset="92.44897959183673%" stop-color="#171717" stop-opacity="1"></stop></linearGradient></defs><g transform="translate(624, 294)"><path d="M-161.7 0C-145.9 -21.5 -130.1 -42.9 -118.6 -68.5C-107.1 -94.1 -99.9 -123.8 -80.9 -140C-61.8 -156.3 -30.9 -159 0 -161.7L0 0Z" fill="#a3e635"></path></g><g transform="translate(0, 0)"><path d="M161.7 0C159.5 31.8 157.3 63.6 140 80.8C122.7 98.1 90.4 100.7 64.5 111.7C38.6 122.8 19.3 142.2 0 161.7L0 0Z" fill="#a3e635"></path></g></svg>