<svg xmlns="http://www.w3.org/2000/svg" xmlns:xlink="http://www.w3.org/1999/xlink"
  xml:space="preserve" version="1.1"
  style="shape-rendering:geometricPrecision;text-rendering:geometricPrecision;image-rendering:optimizeQuality;"
  viewBox="0 0 239.54 652.025" x="0px" y="0px" fill-rule="evenodd" clip-rule="evenodd">
<g><path class="fil0" d="M101.64 0.08c-0.04,0.04 -0.64,0.13 -1.3,0.19 -6.76,0.71 -14.05,4.31 -18.67,9.26 -1.77,1.88 -2.3,2.63 -3.6,5 -0.55,1.01 -1.37,3.55 -1.73,5.37 -0.46,2.38 -0.31,6.62 0.34,9.06 0.86,3.31 2.65,7.42 4.59,10.58 0.8,1.28 1.28,2.01 2.83,4.2 1.33,1.88 5.35,6.83 8.62,10.6 4.77,5.48 8.35,10.41 11.2,15.36 1.59,2.76 2.16,3.8 4.49,8.18 1.94,3.66 4.9,9.03 5.7,10.36l0.79 1.3 -1.77 1.86c-0.95,1.04 -1.74,1.94 -1.74,2.05 0,0.22 1.04,-0.17 3.2,-1.26l1.53 -0.77 0.5 0.62 0.51 0.64 -0.13 -0.77 -0.13 -0.78 2.63 -1.19c2.49,-1.15 3.71,-1.72 9.79,-4.6 3.84,-1.81 7.99,-3.69 9.76,-4.35 0.82,-0.33 2.23,-0.93 3.16,-1.35 0.91,-0.42 1.75,-0.77 1.86,-0.77 0.11,0 0.73,-0.24 1.37,-0.53 0.99,-0.44 5.81,-2.3 12.13,-4.71 0.79,-0.28 1.63,-0.62 1.88,-0.73 0.24,-0.11 1.43,-0.59 2.65,-1.1 1.21,-0.51 2.63,-1.13 3.16,-1.35 0.53,-0.24 1.37,-0.6 1.88,-0.79 0.5,-0.2 1.03,-0.42 1.14,-0.51 0.14,-0.11 1.77,-0.95 3.65,-1.9 1.88,-0.97 3.51,-1.84 3.65,-1.92 0.11,-0.09 1.01,-0.65 1.98,-1.22 8.16,-4.79 13.88,-11.07 16.95,-18.6 1.33,-3.28 1.75,-5.2 1.77,-8.38 0.04,-4.13 -0.69,-7.29 -2.59,-11.18 -3.95,-8.13 -10.29,-13.04 -19,-14.63 -2.05,-0.37 -7.58,-0.48 -9.28,-0.2 -0.48,0.09 -1.72,0.29 -2.76,0.47 -6.28,1.01 -12.33,3.14 -16.9,5.92 -2.9,1.75 -3.38,2.12 -5.15,3.87l-1.39 1.37 -0.25 -0.71c-0.84,-2.41 -2.76,-5.28 -5.76,-8.62 -2.5,-2.76 -4.95,-4.86 -8.33,-7.16 -5.04,-3.4 -10.19,-5.39 -15.58,-6.03 -1.9,-0.22 -7.45,-0.33 -7.65,-0.15l0 0zm10.74 3.55c5.53,0.84 10.5,2.94 15.47,6.52 1.97,1.42 5.3,4.69 6.76,6.63 1.92,2.52 3.67,7.29 3.25,8.71 -0.29,0.95 -0.11,1.68 0.62,2.54 0.62,0.73 0.97,0.86 0.97,0.37 0,-0.15 0.22,-0.44 0.51,-0.64 0.26,-0.17 0.68,-0.51 0.93,-0.75 0.48,-0.44 3.69,-2.87 4.41,-3.31 1.64,-1.04 6.77,-3.45 7.96,-3.76 0.13,-0.02 0.82,-0.27 1.55,-0.51 4.64,-1.61 10.18,-2.67 15.77,-3 4.27,-0.25 9.57,0.64 12.82,2.14 3.71,1.72 7.02,4.35 8.11,6.41 0.86,1.68 1.46,4.28 1.57,6.87 0.22,4.44 -0.58,7.73 -2.92,12.24 -2.7,5.22 -5.79,8.75 -11.36,13.02 -0.79,0.61 -1.77,1.32 -2.14,1.54 -2.43,1.53 -5.13,3.1 -7.05,4.09 -1.22,0.64 -2.36,1.24 -2.54,1.35 -0.66,0.37 -4.8,2.25 -6.52,2.96 -3.16,1.3 -5.06,2.05 -6.63,2.65 -0.84,0.31 -1.9,0.71 -2.32,0.88 -0.42,0.16 -3.6,1.35 -7.07,2.65 -6.74,2.55 -9.39,3.78 -14.78,6.81 -1.88,1.06 -3.45,1.92 -3.49,1.92 -0.22,0 -7.87,4.95 -9.02,5.86 -0.7,0.53 -1.3,0.97 -1.34,0.93 -0.03,-0.03 -0.36,-0.8 -0.71,-1.71 -1,-2.47 -1.77,-4.13 -5.24,-11.15 -4.17,-8.42 -6.38,-11.78 -12.35,-18.78 -7.2,-8.49 -7.78,-9.2 -10.47,-12.93 -3.72,-5.15 -6.39,-11.12 -7.01,-15.69 -0.15,-1.1 -0.13,-5.08 0.02,-6.1 0.91,-6.07 5.53,-11.8 12.51,-15.51 1.77,-0.95 4.51,-1.99 6.87,-2.61 3.49,-0.92 9.08,-1.21 12.86,-0.64l0 0z"/><path class="fil0" d="M188.4 11.54c-0.64,0.47 -0.31,1.06 2.1,3.76 5.39,6.03 7.98,11.45 8.93,18.49 0.57,4.51 0.07,8.16 -2.08,14.48 -0.44,1.28 -0.44,1.3 -0.02,0.77 0.8,-1.02 2.36,-4.51 3.45,-7.62 1.04,-2.99 1.08,-3.21 1.15,-5.97 0.13,-4.79 -0.69,-8.57 -2.83,-13.23 -1.33,-2.9 -3.05,-5.24 -5.86,-7.94 -1.35,-1.32 -3.73,-3.02 -4.2,-3.02 -0.13,0 -0.42,0.13 -0.64,0.28l0 0z"/><path class="fil0" d="M195.28 12.23c-0.11,0.29 0.88,2.05 1.56,2.76 1.06,1.08 2.46,3.62 4.58,8.31 2.65,5.88 3.16,11.4 1.68,18.4 -0.38,1.75 -0.75,3.27 -0.82,3.41 -0.09,0.13 -0.07,0.17 0.09,0.11 0.33,-0.22 1.48,-3.07 2.3,-5.81 0.7,-2.35 0.73,-2.5 0.7,-6.28 -0.02,-3.09 -0.13,-4.2 -0.48,-5.52 -0.53,-2.06 -1.2,-3.83 -1.48,-4.02 -0.11,-0.09 -0.14,-0.18 -0.05,-0.18 0.2,0 -2.69,-5.66 -3.44,-6.74 -0.27,-0.38 -1.2,-1.59 -2.1,-2.72 -1.57,-1.96 -2.28,-2.45 -2.54,-1.72l0 0z"/><path class="fil0" d="M46.21 67.03c-3.43,0.73 -6.88,2.29 -8.89,4.11 -4.59,4.08 -6.96,14.12 -5.32,22.53 0.93,4.71 1.15,6.5 1.19,9.51 0.05,4.37 0.58,7.51 2.23,13.36 0.49,1.7 1.04,3.63 1.2,4.25 0.46,1.65 2.21,6.27 3.2,8.41 0.49,1.02 0.86,1.9 0.86,1.97 0,0.11 1.04,2.5 2.03,4.71 0.38,0.79 1.37,3.07 2.21,5.08 1.62,3.82 4.05,8.82 5.51,11.31 0.46,0.8 0.86,1.61 0.86,1.79 0,0.16 -1.46,1.75 -3.25,3.51 -5.97,5.84 -8.46,8.87 -12.9,15.52 -4.47,6.67 -8.69,15.84 -11.69,25.43 -0.67,2.1 -5.2,17.28 -5.75,19.22 -0.29,0.97 -1.08,3.56 -1.81,5.72 -1.17,3.52 -2.92,9.93 -3.2,11.74 -0.05,0.35 -0.2,1.06 -0.34,1.54 -0.11,0.49 -0.24,1.04 -0.28,1.22 -0.25,1.19 -0.95,3.58 -2.32,7.62 -0.84,2.54 -1.7,5.35 -1.88,6.23 -0.38,1.77 -0.44,3.38 -0.13,3.38 0.73,0 6.23,-10.54 7.44,-14.25 0.47,-1.46 0.62,-1.99 1.2,-4.37 0.77,-3.07 2.54,-8.86 4.33,-14.08 0.64,-1.88 1.52,-4.62 1.99,-6.07 0.9,-2.99 2.01,-6.35 2.85,-8.56 0.28,-0.81 0.59,-1.72 0.64,-1.98 0.15,-0.76 1.41,-4.8 1.57,-5.04 0.06,-0.13 0.17,-0.4 0.22,-0.6 0.53,-2.27 2.89,-8.73 4.7,-12.77 1.15,-2.61 4.09,-8.22 5.31,-10.16 2.54,-4.09 6.43,-9.35 9.32,-12.6 2.7,-3.05 9.26,-9.32 12.37,-11.84 0.8,-0.62 1.55,-1.26 1.66,-1.39 0.13,-0.16 0.62,-0.56 1.11,-0.91 0.48,-0.38 1.56,-1.24 2.43,-1.97 1.85,-1.54 9.25,-7.11 12.48,-9.36 2.78,-1.95 14.38,-9.62 15.47,-10.24 0.86,-0.48 1.3,-0.77 3.29,-2.14 0.75,-0.51 1.44,-0.93 1.48,-0.93 0.07,0 0.88,-0.48 1.81,-1.08 0.93,-0.57 2.7,-1.63 3.91,-2.34 1.22,-0.71 2.48,-1.46 2.81,-1.68 0.33,-0.24 0.64,-0.42 0.71,-0.42 0.04,0 0.73,-0.35 1.5,-0.8 5.24,-3 8.2,-4.28 14.54,-6.32 1.88,-0.59 4.39,-1.43 5.59,-1.85l2.16 -0.77 1.29 1.17c1.65,1.52 4.15,2.8 5.83,2.98 1.08,0.11 1.26,0.09 1.26,-0.24 0,-0.4 -2.37,-2.83 -4.42,-4.58l-1.19 -1.01 1.08 -0.38c3.4,-1.19 8,-3.27 11.27,-5.1 2.91,-1.62 10.6,-4.95 12.92,-5.59 2.65,-0.73 5.66,-1.17 8.07,-1.2 3.64,0 5.12,0.36 6.49,1.51 0.62,0.5 0.67,0.64 0.56,1.48 -0.18,1.06 -0.93,2.67 -1.7,3.6 -0.29,0.35 -0.73,0.99 -1,1.41 -0.35,0.6 -0.97,1.04 -2.85,1.97 -2.61,1.3 -6.23,3.42 -7.8,4.55 -2.01,1.46 -6.58,3.87 -8.4,4.4 -1.26,0.37 -8.92,0.88 -9.96,0.66l-0.53 -0.13 0.55 0.48c1.53,1.35 4.16,2.19 7.29,2.35 2.08,0.11 2.54,0.06 4.29,-0.45 2.3,-0.68 3.62,-1.28 6.76,-3.07 3.58,-2.03 7.58,-4.66 8.62,-5.65 0.95,-0.93 0.24,4.19 -0.97,6.93 -0.6,1.42 -1.95,3.87 -2.39,4.42 -0.09,0.11 -0.62,0.82 -1.13,1.55 -1.48,2.03 -3.67,4.29 -5.59,5.74 -0.97,0.73 -1.77,1.4 -1.81,1.48 -0.04,0.12 -0.18,0.18 -0.26,0.18 -0.12,0 -1.29,0.71 -2.59,1.55 -1.3,0.86 -5.33,3.03 -8.9,4.79 -6.66,3.3 -8.45,4.25 -11.16,5.99 -2.26,1.42 -5.44,3.58 -6.1,4.11 -0.31,0.27 -0.84,0.66 -1.19,0.91 -0.69,0.48 -3.25,2.54 -3.43,2.76 -0.07,0.07 -0.6,0.53 -1.21,0.99 -0.6,0.49 -1.15,0.93 -1.22,1 -0.07,0.06 -0.8,0.7 -1.66,1.43 -1.63,1.37 -2.65,2.35 -8.5,8 -3.8,3.67 -4.95,4.78 -5.68,5.42 -0.42,0.37 -0.51,0.37 -1.97,-0.14 -4.18,-1.45 -6.08,-1.68 -8.59,-0.95 -1.48,0.42 -6.46,2.88 -7.27,3.58 -0.36,0.31 -0.73,0.56 -0.82,0.56 -0.18,0 -3.36,2.32 -4.44,3.27 -1.95,1.65 -3.58,3.22 -8.35,8.02 -2.86,2.87 -5.35,5.39 -5.53,5.63 -0.18,0.22 -1.15,1.39 -2.16,2.59 -1,1.17 -1.82,2.23 -1.82,2.32 0,0.08 -0.28,0.44 -0.61,0.81 -0.65,0.71 -4.47,6.19 -4.47,6.43 0,0.07 -0.17,0.4 -0.4,0.71 -0.42,0.6 -1.03,1.7 -2.87,5.13 -1.3,2.43 -4.46,8.77 -4.46,8.97 0,0.06 -1.08,2.36 -2.43,5.06 -1.33,2.72 -2.43,5.04 -2.43,5.15 0,0.11 -0.16,0.33 -0.33,0.48 -0.2,0.16 -0.58,0.75 -0.87,1.31 -0.81,1.65 -2.56,4.64 -2.8,4.77 -0.11,0.09 -0.16,0.24 -0.09,0.35 0.09,0.11 0.04,0.2 -0.04,0.2 -0.12,0 -0.49,0.55 -0.84,1.22 -0.38,0.66 -0.73,1.21 -0.82,1.21 -0.11,0 -0.18,0.09 -0.18,0.22 0,0.11 -0.6,1.11 -1.32,2.19 -0.73,1.1 -1.33,2.05 -1.33,2.12 0,0.27 -3.01,4.27 -4.07,5.41 -4.5,4.89 -5.96,6.79 -6.89,9.06 -0.53,1.35 -0.66,1.99 -0.35,1.99 0.22,0 3.38,-1.63 5.19,-2.69 1.68,-0.98 5.32,-3.69 6.67,-4.98 0.84,-0.77 2.79,-3.13 3.71,-4.48 1.24,-1.81 2.81,-4.22 2.81,-4.33 0,-0.07 0.09,-0.22 0.22,-0.38 0.97,-1.19 1.33,-1.68 1.33,-1.81 0,-0.09 0.31,-0.6 0.66,-1.15 0.38,-0.53 0.66,-1.01 0.66,-1.08 0,-0.07 0.2,-0.42 0.44,-0.75 1.07,-1.5 5.82,-10.61 7.5,-14.36 3.13,-7.01 7.09,-14.28 10.51,-19.27 1.06,-1.55 3.83,-5.26 4.09,-5.48 0.09,-0.07 0.29,-0.33 0.49,-0.6 0.42,-0.66 2.47,-2.96 4.73,-5.35 0.99,-1.03 2.12,-2.29 2.54,-2.76 1.68,-1.94 7.38,-7.44 8.81,-8.53 0.4,-0.31 0.84,-0.66 0.97,-0.79 0.42,-0.4 4.11,-2.74 4.34,-2.74 0.13,0 0.22,-0.09 0.22,-0.22 0,-0.11 0.06,-0.2 0.17,-0.18 0.09,0.02 0.56,-0.15 1.04,-0.42 0.49,-0.24 0.95,-0.44 1.02,-0.42 0.06,0 0.29,-0.11 0.46,-0.24 0.71,-0.6 3.16,-1.19 4.82,-1.19 1.28,0 2.23,0.17 4.2,0.81 1.39,0.44 2.85,0.93 3.2,1.09 0.38,0.17 1.77,0.75 3.09,1.28 3.32,1.32 9.02,4.26 12.11,6.25 0.82,0.53 1.55,0.97 1.59,0.97 0.05,0 4.25,2.79 9.33,6.19 8.75,5.88 11.93,8.17 15.75,11.36 0.91,0.75 2.46,1.96 3.43,2.67 6.65,4.88 10.03,7.84 16.15,14.19 7.14,7.35 8.22,8.63 11.05,12.94 3.29,5.04 3.91,5.86 7.16,9.46 1.52,1.68 3.05,3.58 3.4,4.2l0.64 1.17 -0.75 -0.46c-8.4,-5.11 -13.9,-8.11 -17.19,-9.37 -0.89,-0.33 -1.53,-0.73 -1.75,-1.09 -1.43,-2.36 -2.78,-4.06 -5.87,-7.27 -1.97,-2.03 -4.4,-4.72 -5.42,-5.98 -2.43,-3.03 -12.2,-12.75 -15.64,-15.58 -3.54,-2.9 -3.43,-2.81 -7.14,-5.08 -1.77,-1.06 -3.84,-2.34 -4.64,-2.83 -4.24,-2.61 -7.42,-4.04 -10.49,-4.66 -0.36,-0.09 -0.91,-0.2 -1.22,-0.27 -1.92,-0.4 -6.32,-0.04 -8.62,0.73 -1.01,0.33 -3.33,1.39 -3.53,1.61 -0.07,0.07 -0.47,0.31 -0.89,0.56 -2.49,1.37 -8.26,6.85 -10.82,10.25 -0.49,0.62 -0.95,1.24 -2.28,2.89 -0.77,0.98 -4.86,6.96 -5.72,8.4 -1.42,2.34 -3.27,5.83 -4.02,7.51 -1.9,4.27 -6.26,12.88 -8.33,16.46 -0.22,0.36 -0.8,1.46 -1.31,2.43 -0.51,0.98 -1.04,1.9 -1.15,2.06 -0.24,0.26 -0.59,0.86 -1.61,2.69 -0.31,0.56 -0.64,1.15 -0.75,1.33 -0.38,0.6 -1.7,2.94 -2.39,4.2 -2.58,4.71 -2.94,5.21 -6.89,9.52 -4.4,4.82 -6.1,7.18 -6.96,9.66 -0.27,0.75 -0.29,0.93 -0.04,0.93 0.41,0 4.59,-2.57 6.65,-4.07 2.98,-2.21 6.93,-5.63 7.86,-6.83 0.51,-0.62 1.26,-1.83 1.68,-2.69 0.71,-1.42 4.07,-7.58 4.6,-8.47 0.13,-0.19 0.51,-0.88 0.84,-1.48 0.33,-0.61 0.88,-1.61 1.23,-2.21 0.38,-0.61 0.87,-1.5 1.11,-1.98 0.26,-0.49 1.02,-1.88 1.68,-3.1 0.66,-1.21 2.63,-5.04 4.35,-8.5 4.97,-10.04 6.83,-13.35 9.97,-18.01 1.54,-2.28 3.58,-5.08 4.11,-5.64 0.2,-0.2 0.7,-0.81 1.12,-1.34 0.75,-0.95 2.63,-3.03 3.78,-4.16 2.41,-2.43 6.41,-5.32 9.15,-6.65 2.52,-1.24 4.68,-1.63 7.84,-1.48 4.22,0.22 7.14,1.33 12.91,4.88 1.68,1.04 3.11,1.9 3.16,1.9 0.46,0 6.49,4.33 8.44,6.08 3.64,3.25 11.75,11.25 13.23,13.04 2.06,2.49 5.73,6.56 7.67,8.5 0.91,0.91 1.59,1.68 1.57,1.73 -0.05,0.04 -1.7,-0.58 -3.69,-1.35 -6.7,-2.65 -10.3,-3.56 -14.01,-3.56 -3.67,0 -5.83,0.77 -9.94,3.54 -2.83,1.9 -4.36,3.16 -7.07,5.94 -2.57,2.59 -4.16,4.73 -6.63,8.79 -0.97,1.62 -1.99,3.23 -2.28,3.63 -0.26,0.37 -0.48,0.73 -0.48,0.79 0,0.07 -0.4,0.75 -0.89,1.51 -0.97,1.59 -3.31,5.41 -3.64,5.98 -1.02,1.75 -2.5,4.25 -3.12,5.2 -0.42,0.64 -0.75,1.23 -0.75,1.3 0,0.07 -0.49,0.95 -1.06,1.94 -0.6,0.98 -1.35,2.35 -1.7,3.01 -0.33,0.66 -0.8,1.46 -1,1.77 -0.35,0.51 -1.48,2.58 -2.85,5.17 -0.75,1.43 -1.72,2.38 -2.78,2.76 -2.3,0.77 -7.49,4.18 -8.84,5.79 -0.88,1.04 -2.1,2.81 -2.1,3 0,0.14 1.57,-0.55 3.49,-1.48 4.36,-2.16 5.59,-2.71 5.75,-2.56 0.04,0.07 0,0.24 -0.11,0.4 -0.11,0.15 -0.36,0.64 -0.51,1.06 -0.16,0.42 -0.47,1.17 -0.66,1.66 -0.8,1.83 -1.31,3.4 -1.64,5.03 -0.38,1.75 -0.49,4.36 -0.18,4.36 0.09,0 1.46,-2.01 3.03,-4.44 1.59,-2.44 3.27,-4.95 3.78,-5.57 0.51,-0.64 1.08,-1.46 1.28,-1.81 0.2,-0.38 0.62,-1.07 0.91,-1.55 0.31,-0.49 0.9,-1.48 1.32,-2.21 0.44,-0.73 0.89,-1.48 1,-1.66 0.33,-0.48 3.16,-5.54 3.49,-6.18 0.15,-0.31 0.66,-1.2 1.15,-1.99 0.48,-0.8 0.97,-1.64 1.08,-1.9 0.11,-0.27 0.57,-1.02 0.99,-1.71 0.45,-0.68 0.8,-1.34 0.8,-1.48 0,-0.11 0.11,-0.22 0.22,-0.22 0.13,0 0.22,-0.11 0.22,-0.24 0,-0.11 0.49,-0.99 1.06,-1.92 0.6,-0.93 1.5,-2.41 2.06,-3.29 1.34,-2.21 2.85,-4.56 4.92,-7.8 1,-1.53 1.9,-2.94 2.01,-3.14 0.14,-0.18 0.38,-0.58 0.58,-0.86 0.2,-0.29 0.93,-1.4 1.59,-2.43 1.64,-2.54 4.18,-5.57 6.16,-7.3 0.89,-0.77 1.73,-1.52 1.86,-1.63 0.13,-0.13 0.55,-0.46 0.95,-0.77 0.4,-0.31 1,-0.76 1.3,-1 2.55,-1.96 6.17,-3.89 7.89,-4.2 0.49,-0.08 1.09,-0.2 1.33,-0.24 0.99,-0.2 3.64,-0.09 5.3,0.22 1.9,0.35 5.42,1.44 8.07,2.5 0.9,0.37 3.69,1.5 6.18,2.49 4.93,1.99 7.12,3.03 9.84,4.65 0.97,0.59 2.71,1.61 3.86,2.27 4.67,2.7 4.58,2.63 7.47,6.7 2.32,3.27 3.03,5.03 5.33,13.34 0.35,1.28 0.75,2.61 0.9,2.98 0.13,0.36 0.25,0.71 0.25,0.78 -0.03,0.06 0.13,0.62 0.3,1.24 0.6,2.03 1.51,6.51 1.88,9.14 0.11,0.8 0.29,2.08 0.42,2.88 0.38,2.43 0.58,5.48 0.58,8.94 -0.03,2.79 -0.09,3.56 -0.51,4.87 -1.17,3.69 -3.18,5.41 -8.44,7.2 -2.01,0.71 -2.23,0.73 -5.64,0.73 -3.2,0.02 -3.62,-0.02 -4.42,-0.47 -2.69,-1.43 -4.11,-4.28 -5.41,-10.89 -0.51,-2.54 -0.46,-2.34 -1.3,-5.72 -0.38,-1.5 -0.69,-2.79 -0.69,-2.81 0,-0.04 0.4,-0.09 0.86,-0.09 1.37,0 4.22,-0.42 5.44,-0.81 1.86,-0.6 7.2,-3.23 9.17,-4.53 1.83,-1.22 3.18,-2.39 2.74,-2.39 -0.13,0 -2.61,0.82 -5.52,1.79 -2.9,0.99 -6.54,2.23 -8.09,2.76 -1.55,0.53 -3.45,1.06 -4.2,1.19 -1.39,0.23 -4.6,0.31 -4.6,0.14 0,-0.07 0.34,-0.8 0.76,-1.62 0.42,-0.81 0.97,-2.01 1.21,-2.6 0.27,-0.62 0.58,-1.31 0.69,-1.55 0.86,-1.99 1.21,-3 1.9,-5.61 1.68,-6.52 1.83,-9.95 0.59,-13.24 -0.37,-0.97 -0.73,-1.21 -0.73,-0.48 0,0.62 -0.95,4.11 -2.01,7.4 -0.48,1.55 -0.93,2.96 -0.97,3.16 -0.33,1.61 -2.5,7.05 -4.11,10.32 -2.28,4.64 -6.98,11.93 -10.78,16.68 -0.25,0.31 -0.8,1.04 -1.26,1.66 -0.47,0.59 -1.59,2.07 -2.5,3.27 -4.2,5.43 -8.86,11.99 -8.79,12.41 0.02,0.34 0.24,0.47 0.79,0.51 0.69,0.07 0.93,-0.11 3.12,-2.32 1.3,-1.3 3.25,-3.49 4.33,-4.81 2.85,-3.56 4.6,-5.64 4.64,-5.57 0.02,0.02 0.09,2.23 0.18,4.9 0.06,2.68 0.19,5.95 0.26,7.29 0.11,2.15 -0.13,6.77 -0.46,8.29 -0.11,0.53 -0.25,1.28 -0.42,2.43 -0.09,0.49 -0.31,1.75 -0.47,2.65 -0.24,1.22 -0.84,4 -0.99,4.64 -0.11,0.42 -0.24,1.02 -0.31,1.33 -0.35,1.88 -1.3,5.68 -1.79,7.16 -0.33,0.95 -0.53,1.88 -0.46,2.03 0.22,0.55 1.45,0.35 2.1,-0.33 0.68,-0.73 2.54,-4.88 3.53,-7.91 1.13,-3.43 2.39,-8.82 2.81,-11.96 0.06,-0.64 0.22,-1.21 0.33,-1.28 0.37,-0.22 5.08,2.39 6.3,3.52 1.23,1.12 3,3.35 4.15,5.23 0.33,0.56 0.91,1.48 1.28,2.1 1.55,2.52 4.07,7.01 5.19,9.22 0.67,1.32 1.28,2.38 1.42,2.38 0.48,0 0.04,-2.43 -1.04,-5.63 -0.82,-2.5 -3.74,-8.42 -4.64,-9.41 -0.18,-0.18 -0.31,-0.42 -0.31,-0.49 0,-0.09 -0.29,-0.62 -0.64,-1.17 -1.06,-1.73 -3.01,-3.52 -4.84,-4.49 -0.95,-0.46 -2.25,-1.21 -2.94,-1.61 -0.66,-0.4 -1.79,-0.93 -2.47,-1.17l-1.24 -0.42 0.02 -2.1c0.02,-1.17 -0.04,-2.63 -0.11,-3.23 -0.09,-0.62 -0.2,-1.65 -0.26,-2.32 -0.36,-3.33 -1.48,-7.84 -2.46,-9.78 -0.62,-1.2 -0.57,-1.62 0.25,-2.37l0.55 -0.53 0.33 0.46c2.32,3.32 5.24,5.51 8.35,6.26 2.81,0.7 4.44,0.82 6.19,0.44 0.95,-0.2 2.01,-0.57 2.34,-0.84l0.64 -0.46 1.39 0.75c1.9,0.99 4.75,1.79 7.52,2.1 3.89,0.42 7.97,-0.27 12.17,-2.08l0.82 -0.35 0.33 1.14c0.49,1.77 0.8,2.92 0.8,3.08 0,0.06 -1.02,0.19 -2.26,0.26 -1.48,0.07 -3.49,0.4 -5.7,0.93 -4.2,0.97 -9.37,1.46 -16.61,1.5 -2.77,0.02 -4.95,0.11 -4.87,0.18 0.4,0.37 3.47,0.9 6.08,1.06 3.03,0.2 9.3,-0.02 11.45,-0.4 0.66,-0.11 2.1,-0.42 3.16,-0.66 3.35,-0.8 7.13,-0.51 9.59,0.73 0.61,0.31 1.32,0.57 1.54,0.57 0.36,0 1.75,1.42 3.49,3.54 0.36,0.42 0.71,0.84 0.8,0.9 0.11,0.07 0.42,0.47 0.73,0.87 0.31,0.41 1.88,2.09 3.49,3.75 4.53,4.6 6.8,7.58 12.64,16.57 4.77,7.34 7.51,14.17 8.37,20.88 1.42,10.85 1.15,16.38 -1.3,26.19 -0.53,2.07 -0.64,2.54 -1.77,7.51 -1.66,7.11 -3.47,13.88 -5.46,20.11 -0.48,1.52 -1.37,4.79 -1.96,7.29 -0.71,2.87 -1.59,5.81 -2.46,8.06 -0.73,1.95 -1.68,4.53 -2.1,5.75 -0.39,1.21 -0.83,2.41 -0.95,2.65 -0.3,0.66 -1.65,4.44 -2.16,6.08 -0.58,1.79 -2.36,7.6 -2.92,9.39 -0.22,0.73 -0.46,1.57 -0.51,1.88 -0.06,0.3 -0.37,1.54 -0.68,2.76 -0.31,1.21 -0.58,2.41 -0.58,2.63 0,0.24 -0.08,0.73 -0.22,1.1 -0.11,0.38 -0.5,2.56 -0.88,4.88 -0.38,2.3 -1.04,6.08 -1.48,8.4 -0.42,2.3 -0.86,4.69 -0.95,5.3 -0.11,0.6 -0.35,1.99 -0.55,3.1 -0.2,1.08 -0.4,2.23 -0.44,2.54 -0.05,0.31 -0.4,2.34 -0.76,4.53 -1.26,7.49 -2.45,15.77 -3,20.77 -0.07,0.73 -0.18,1.57 -0.22,1.88 -0.05,0.31 -0.2,1.7 -0.31,3.09 -0.13,1.39 -0.29,2.98 -0.35,3.53 -0.05,0.56 -0.16,1.79 -0.23,2.77 -0.06,0.97 -0.17,2.01 -0.24,2.27 -0.07,0.36 -0.02,0.51 0.16,0.44 0.15,-0.04 0.59,-1.32 1.01,-2.85 1.06,-3.91 4.51,-17.94 5.57,-22.62 0.51,-2.19 1.11,-4.77 1.35,-5.75 0.22,-0.97 0.46,-2.01 0.51,-2.32 0.06,-0.31 0.37,-1.74 0.68,-3.2 0.33,-1.46 0.62,-2.85 0.66,-3.09 0.07,-0.25 0.42,-1.88 0.8,-3.65 0.4,-1.77 0.93,-4.31 1.22,-5.63 0.92,-4.4 2.32,-10.52 2.87,-12.49 0.17,-0.66 0.37,-1.41 0.44,-1.66 0.04,-0.24 0.4,-1.74 0.77,-3.31 0.38,-1.59 0.73,-3.03 0.78,-3.2 0.04,-0.18 0.28,-1.29 0.53,-2.43 0.26,-1.15 0.73,-3.05 1.03,-4.2 0.31,-1.15 0.6,-2.34 0.65,-2.65 0.15,-0.8 7.49,-29.88 8.02,-31.71 0.77,-2.65 1.3,-4.46 3.24,-10.83 0.42,-1.39 0.47,-1.52 2.32,-9.5 4.49,-19.31 4.56,-19.69 4.36,-27.51 -0.09,-2.85 -0.2,-5.5 -0.25,-5.85 -0.06,-0.38 -0.17,-1.26 -0.24,-1.99 -0.29,-2.7 -0.33,-3.01 -0.68,-4.47 -0.58,-2.54 -2.26,-7.38 -3.3,-9.52 -0.55,-1.13 -0.99,-2.1 -0.99,-2.16 0,-0.05 -0.24,-0.49 -0.55,-0.98 -0.31,-0.48 -0.51,-0.88 -0.44,-0.88 0.04,0 -0.6,-1.11 -1.44,-2.43 -0.86,-1.35 -1.55,-2.54 -1.55,-2.65 0,-0.09 -0.09,-0.22 -0.17,-0.27 -0.09,-0.04 -1.13,-1.5 -2.3,-3.27 -1.2,-1.77 -2.39,-3.45 -2.65,-3.75 -0.29,-0.31 -0.87,-1 -1.29,-1.55 -1.25,-1.66 -3.55,-4.2 -5.17,-5.75 -0.84,-0.79 -2.58,-2.47 -3.91,-3.75 -1.3,-1.28 -3.36,-3.29 -4.59,-4.49 -2.43,-2.34 -2.7,-2.74 -3.12,-4.57 -0.15,-0.66 -0.68,-2.06 -1.15,-3.1 -0.62,-1.3 -0.81,-1.98 -0.66,-2.2 1.39,-2.3 2.06,-4.25 2.47,-7.41 0.34,-2.43 0.25,-9.06 -0.15,-11.6 -0.42,-2.8 -1.5,-7.4 -2.28,-9.72 -0.66,-2.03 -2.01,-6.27 -2.54,-8.06 -1.76,-6.01 -2.21,-6.94 -4.64,-10.28 -0.48,-0.66 -1.01,-1.35 -1.15,-1.5 -0.15,-0.16 -0.28,-0.38 -0.28,-0.47 0,-0.08 -0.8,-0.95 -1.75,-1.92 -1.52,-1.54 -1.83,-1.99 -2.52,-3.69 -1.5,-3.73 -3,-5.96 -6.96,-10.45 -1.37,-1.57 -3.36,-4.13 -4.42,-5.72 -1.68,-2.54 -4.57,-6.65 -4.9,-6.96 -0.07,-0.07 -0.6,-0.66 -1.2,-1.33 -5.76,-6.43 -12.99,-13.7 -15.82,-15.93 -3.4,-2.69 -15.84,-12.13 -18.14,-13.74 -1.37,-0.97 -7.09,-4.71 -10.23,-6.68 -1.17,-0.72 -3.58,-2.27 -5.37,-3.44 -1.81,-1.15 -4.02,-2.57 -4.95,-3.12 -2.43,-1.48 -9.36,-5.1 -10.91,-5.7 -0.73,-0.29 -1.41,-0.57 -1.5,-0.66 -0.09,-0.09 0.7,-0.89 1.76,-1.79 1.06,-0.88 1.99,-1.68 2.06,-1.75 0.57,-0.66 8.97,-7.84 11.71,-10.01 4.4,-3.46 10.63,-7.6 15.14,-10.05 1.56,-0.84 9.63,-4.84 12.81,-6.34 2.76,-1.3 6.7,-3.49 8.26,-4.57 2.88,-2.02 6.63,-5.48 8.4,-7.8 0.38,-0.49 0.77,-1 0.91,-1.15 0.13,-0.16 0.46,-0.73 0.77,-1.31 0.31,-0.57 0.64,-1.15 0.75,-1.28 0.42,-0.51 1.77,-4.31 2.15,-5.96 0.39,-1.88 0.33,-4.56 -0.16,-6.7 -0.26,-1.1 -0.26,-1.15 0.49,-2.1 2.25,-2.8 2.74,-4.11 2.56,-6.65 -0.09,-1.5 -0.27,-2.05 -0.97,-3.45 -1.46,-2.89 -3.94,-4.39 -7.25,-4.46 -2.36,-0.04 -6.89,0.77 -9.39,1.68 -0.42,0.15 -1.33,0.46 -1.99,0.66 -0.66,0.2 -1.5,0.51 -1.88,0.67 -1.79,0.77 -2.38,1.01 -4.53,1.98 -1.28,0.58 -2.41,1.13 -2.54,1.22 -0.88,0.66 -8.79,4.44 -15.35,7.33 -1.64,0.73 -3.3,1.51 -3.67,1.75 -0.38,0.22 -2.68,0.93 -5.08,1.52 -8.11,2.06 -8.69,2.26 -13.55,4.36 -3.38,1.48 -9.43,4.53 -11.95,6.01l-1.88 1.12 -0.31 -0.61c-0.16,-0.34 -0.97,-1.75 -1.79,-3.14 -0.82,-1.39 -2.14,-3.85 -2.98,-5.41 -9.37,-17.95 -11.56,-21.26 -19.09,-28.88 -2.01,-2.04 -3.78,-3.98 -3.96,-4.31 -1.26,-2.41 -6.58,-7.6 -10.21,-9.95 -1.32,-0.86 -3.07,-1.65 -4.86,-2.23 -0.82,-0.24 -4.64,-0.22 -5.96,0.05l0 0zm3.2 2.43c1.74,0.62 4.31,1.96 6.32,3.31 2.32,1.57 4.62,3.34 4.13,3.16 -3.23,-1.1 -9.13,-0.44 -13.3,1.48 -5.11,2.37 -7.71,4.8 -10.08,9.46 -0.42,0.79 -0.84,1.41 -0.92,1.37 -0.38,-0.24 0.04,-4.84 0.68,-7.71 1.33,-5.9 4.24,-10.5 7.14,-11.32 1.3,-0.37 4.66,-0.22 6.03,0.25l0 0zm6.12 7.73c4.88,1.28 7.78,3.34 13.92,9.86 3.14,3.31 7.45,8.7 8.68,10.87 0.14,0.22 0.87,1.45 1.66,2.74 0.8,1.3 1.68,2.76 1.97,3.27 0.28,0.48 1.04,1.74 1.65,2.78 0.65,1.04 2.13,3.58 3.27,5.63 2.26,4 4.25,7.38 5.29,8.87 0.33,0.48 0.66,1.14 0.75,1.43 0.13,0.55 0.15,0.55 -2.21,2.03 -0.49,0.31 -1.68,1.13 -2.65,1.79 -0.98,0.69 -2.3,1.59 -2.94,2.04 -1.35,0.92 -10.54,7.44 -11.98,8.5 -1.63,1.22 -8.9,6.99 -9.5,7.56 -0.73,0.66 -5.28,4.35 -5.41,4.35 -0.07,0 -0.29,0.16 -0.49,0.33 -1.99,1.64 -3.51,2.72 -3.62,2.59 -0.07,-0.09 -0.36,-0.8 -0.62,-1.59 -0.29,-0.8 -0.91,-2.28 -1.39,-3.32 -0.49,-1.03 -1.68,-3.86 -2.66,-6.29 -0.95,-2.43 -2.09,-5.26 -2.54,-6.28 -0.42,-1.04 -0.79,-1.99 -0.81,-2.1 -0.03,-0.13 -0.2,-0.55 -0.4,-0.9 -0.51,-1 -3.85,-9.97 -4.27,-11.49 -0.2,-0.73 -0.48,-1.73 -0.66,-2.21 -0.62,-1.84 -1.88,-6.72 -2.25,-8.84 -0.49,-2.7 -0.53,-9.94 -0.09,-12.37 0.15,-0.87 0.31,-1.79 0.35,-2.1 0.18,-1.64 2.17,-7.12 3.18,-8.73 1.62,-2.59 2.08,-3.23 3.19,-4.35 1.34,-1.4 2.76,-2.35 5.34,-3.54 1.99,-0.93 3.23,-1.06 5.24,-0.53l0 0zm117.42 202.87c0.42,0.11 0.51,0.36 0.64,1.59 0.4,3.76 2.54,11.27 4,13.93 0.42,0.75 0.75,1.43 0.75,1.5 0,0.06 -0.31,0.06 -0.69,-0.02 -0.35,-0.09 -2.23,-0.18 -4.13,-0.23 -3.91,-0.06 -5.85,-0.35 -7.31,-1.1 -1.2,-0.6 -1.73,-1.15 -2.57,-2.67l-0.61 -1.13 1.41 -1.75c0.8,-0.95 1.61,-2.01 1.86,-2.32 2.29,-3 3.11,-4.13 4.28,-5.9 1.37,-2.03 1.48,-2.14 2.37,-1.9l0 0z"/><path class="fil0" d="M5.9 257.11c-1.3,1.43 -2.07,2.6 -3.62,5.65 -2.72,5.28 -2.94,8.97 -0.95,15.2 1.37,4.27 4.44,8.53 8.64,11.98 0.26,0.22 0.71,0.51 0.99,0.64 0.51,0.22 0.53,0.29 0.51,3.47 0,3.27 0.13,4.15 0.91,6.54 0.55,1.7 1.32,3.12 2.98,5.3 1.57,2.13 5.77,6.35 7.31,7.41 0.62,0.39 1.15,0.81 1.22,0.9 0.06,0.09 1.15,0.82 2.43,1.61 1.28,0.8 2.43,1.55 2.58,1.68 0.16,0.11 0.34,0.23 0.4,0.23 0.27,0 8.35,5.25 9.64,6.27 0.33,0.27 1.61,1.22 2.85,2.12 1.23,0.91 2.45,1.81 2.65,1.99 0.22,0.18 0.93,0.73 1.57,1.22 0.62,0.48 1.32,1.06 1.54,1.25 1.79,1.71 10.56,7.92 11.16,7.92 0.18,0 0.31,0.08 0.31,0.22 0,0.11 0.09,0.22 0.2,0.22 0.11,0 0.99,0.48 1.94,1.06 2.41,1.5 3.89,2.25 15.98,8.17 5.15,2.54 9.77,5.09 16.31,8.97 1.85,1.11 3.55,2.1 3.75,2.24 0.47,0.26 5.88,3.64 7.45,4.61 1.04,0.67 4.29,2.32 6.12,3.1 1.41,0.62 4.9,1.68 9.79,2.98 1.06,0.29 1.52,0.51 1.46,0.71 -0.8,2.83 -0.36,5.26 1.32,7.31l0.86 1.04 -0.22 2.16c-0.22,2.32 -0.57,7.3 -0.77,11.23 -0.18,3.36 -0.35,6.25 -0.44,7.18 -0.05,0.42 -0.14,1.53 -0.22,2.43 -0.09,0.91 -0.38,3.54 -0.69,5.86 -0.73,5.68 -0.73,5.81 -0.97,7.07 -0.11,0.59 -0.31,1.99 -0.44,3.09 -0.29,2.5 -1.24,8.42 -2.43,15.36 -0.36,2.01 -0.69,4.04 -0.75,4.53 -0.27,1.76 -3.92,20.44 -6.1,31.15 -0.14,0.6 -0.51,2.65 -0.89,4.53 -0.35,1.88 -1.08,5.77 -1.63,8.62 -2.43,12.75 -4.18,22.91 -5.99,34.89 -0.88,5.88 -0.71,5.88 0.95,0.02 1.61,-5.7 3.38,-12.42 3.91,-15.02 0.05,-0.18 0.27,-1.18 0.51,-2.21 0.24,-1.04 0.71,-3.08 1.04,-4.53 0.31,-1.46 0.82,-3.69 1.1,-4.98 0.29,-1.28 0.75,-3.31 1,-4.53 0.26,-1.21 0.66,-3.11 0.88,-4.19 1.37,-6.39 2.76,-12.93 3.23,-15.12 0.28,-1.39 0.57,-2.69 0.64,-2.87 0.04,-0.2 0.13,-0.64 0.2,-0.99 0.06,-0.36 0.22,-1.15 0.35,-1.77 0.13,-0.62 0.26,-1.33 0.31,-1.57 0.04,-0.24 0.75,-3.67 1.55,-7.62 0.79,-3.96 1.7,-8.69 2.01,-10.5 0.92,-5.39 2.78,-16.5 2.89,-17.45 0.07,-0.49 0.31,-2.15 0.55,-3.67 0.22,-1.53 0.47,-3.43 0.53,-4.2 0.09,-0.77 0.18,-1.66 0.22,-1.97 0.07,-0.31 0.31,-2.25 0.54,-4.31 0.79,-6.76 1.08,-13.25 1.1,-24.1 0.02,-4.51 0.04,-4.89 0.42,-4.86 0.31,0.02 2.67,1.21 5.57,2.85 5.01,2.8 17.28,8.13 18.12,7.84 0.37,-0.11 -5.51,-3.82 -12.38,-7.8 -6.78,-3.93 -9.14,-5.41 -10.21,-6.41 -1.23,-1.19 -2.34,-3.33 -2.54,-4.92l-0.13 -1.17 0.64 0.13c0.36,0.09 0.8,0.2 0.97,0.24 0.64,0.22 4.82,0.97 7.19,1.3 2.91,0.42 9.39,0.71 9.39,0.42 0,-0.11 -0.34,-0.33 -0.71,-0.48 -2.1,-0.84 -8.4,-2.96 -10.89,-3.69 -15.49,-4.49 -17.48,-5.26 -23.71,-9.02 -1.75,-1.06 -3.25,-1.92 -3.34,-1.92 -0.11,0 -0.31,-0.13 -0.44,-0.31 -0.16,-0.18 -0.64,-0.48 -1.08,-0.71 -0.45,-0.19 -1.24,-0.66 -1.75,-0.99 -0.51,-0.35 -1.02,-0.64 -1.13,-0.64 -0.11,0 -0.44,-0.18 -0.73,-0.4 -0.28,-0.22 -1.28,-0.82 -2.18,-1.3 -0.91,-0.49 -2.1,-1.13 -2.65,-1.44 -2.28,-1.28 -9.57,-5.19 -11.72,-6.27 -2.56,-1.31 -11.49,-5.62 -11.64,-5.62 -0.04,0 -1.39,-0.73 -3.01,-1.63 -1.61,-0.91 -3.4,-1.9 -4.02,-2.25 -2.49,-1.4 -7.24,-4.49 -8.17,-5.33 -0.25,-0.22 -0.89,-0.75 -1.44,-1.17 -0.55,-0.42 -1.9,-1.5 -3,-2.43 -1.11,-0.91 -2.32,-1.9 -2.72,-2.21 -1.77,-1.35 -3.25,-2.54 -3.36,-2.72 -0.26,-0.37 -4.29,-3.16 -7.49,-5.19 -0.66,-0.42 -1.48,-0.95 -1.81,-1.17 -0.33,-0.25 -0.64,-0.42 -0.71,-0.42 -0.13,0 -4.73,-2.9 -5.97,-3.76 -4.79,-3.38 -8.55,-7.31 -10.18,-10.6 -1.11,-2.26 -1.22,-2.55 -1.53,-4.25 -0.59,-3.36 -0.37,-7.22 0.64,-10.78 0.2,-0.66 0.38,-1.37 0.4,-1.55 0.14,-0.75 0.62,-2.21 0.93,-2.8 0.18,-0.33 0.33,-0.73 0.33,-0.86 0,-0.14 0.13,-0.53 0.31,-0.89 0.36,-0.71 2.59,-5.96 2.68,-6.27 0.02,-0.07 0.19,-0.49 0.39,-0.98 0.2,-0.46 0.38,-0.97 0.38,-1.14 0,-0.16 0.09,-0.51 0.2,-0.8 0.79,-1.99 1.15,-3.67 1.43,-6.98 0.11,-1.11 -0.22,-1.37 -1.68,-1.37 -2.16,0 -2.71,0.68 -4.26,5.19 -1.08,3.18 -2.43,6.61 -4.04,10.27 -1.09,2.48 -1.82,4.42 -3.05,8.18 -0.09,0.24 -0.27,0.15 -0.71,-0.35 -5.39,-6.19 -6.94,-9.61 -6.94,-15.56 -0.02,-1.94 0.09,-2.63 0.6,-4.2 0.33,-1.04 0.79,-2.63 1.02,-3.53 0.19,-0.91 0.48,-2.06 0.61,-2.54 0.4,-1.51 0.27,-4.09 -0.22,-4.09 -0.09,0 -0.53,0.37 -0.95,0.82l0 0z"/><path class="fil0" d="M224.71 371.44c-3.76,2.32 -6.81,3.65 -12.35,5.44 -5.53,1.77 -7.67,2.3 -11.6,2.78 -2.32,0.31 -4.2,0.47 -10.06,0.91 -9.92,0.73 -24.66,0.88 -28.5,0.28 -1.26,-0.19 -2.34,-0.33 -2.39,-0.28 -0.13,0.13 3.85,0.99 6.08,1.32 5.96,0.89 15.73,1.17 25.81,0.8 3.77,-0.13 7.44,-0.31 8.17,-0.35 0.73,-0.05 2.12,-0.16 3.09,-0.23 6.28,-0.46 11.41,-1.39 13.95,-2.54 0.51,-0.24 1.06,-0.44 1.17,-0.44 0.48,0 4.7,-1.99 5.92,-2.78 1.59,-1.04 4.71,-4.16 4.71,-4.73 0,-0.49 -1.09,-1.33 -1.7,-1.33 -0.25,0 -1.29,0.51 -2.3,1.15z"/></g></svg>