<svg xmlns="http://www.w3.org/2000/svg" xmlns:xlink="http://www.w3.org/1999/xlink" version="1.1"
    x="0px" y="0px" viewBox="0 0 100 125" enable-background="new 0 0 100 100" xml:space="preserve">
  <g>
    <polygon fill="#ebc634" strokeWidth="3" strokeLinecap="round" strokeLinejoin="round" stroke-miterlimit="10"
      points="50,9.218 60.121,40.373 92.881,40.373 66.379,59.627 76.502,90.782 50,71.526 23.498,90.782 
      33.621,59.627 7.119,40.373 39.879,40.373" />
  </g>
  <g>
    <g>
      <g>
        <path d="M43.143,39.547c3.684-9.351,5.388-19.384,10.198-28.283C55.18,7.86,50,4.832,48.16,8.236 
          c-5.068,9.376-6.924,19.871-10.802,29.717C35.938,41.557,41.742,43.104,43.143,39.547L43.143,39.547z" fill="#ebc634"/>
      </g>
    </g>
    <g>
      <g>
        <path d="M47.107,11.297c2.617,9.328,7.282,17.702,8.833,27.352c0.459-1.129,0.919-2.259,1.379-3.388 
          c-0.111,0.05-0.223,0.099-0.333,0.148c-3.53,1.569-0.475,6.737,3.028,5.181c0.111-0.049,0.222-0.099,0.333-0.148 
          c1.302-0.579,1.576-2.161,1.378-3.388c-1.55-9.644-6.217-18.027-8.833-27.352C51.849,5.983,46.06,7.565,47.107,11.297 
          L47.107,11.297z" fill="#ebc634"/>
      </g>
    </g>
    <g>
      <g>
        <path d="M8.75,42.75c10.845,0.876,21.655-0.657,32.5-0.75c3.867-0.033,3.871-6.033,0-6c-10.845,0.093-21.655,1.626-32.5,0.75 
          C4.891,36.438,4.921,42.44,8.75,42.75L8.75,42.75z" fill="#ebc634"/>
      </g>
    </g>
    <g>
      <g>
        <path d="M58.953,41.393c10.487,2.676,21.376-0.954,31.75,2c3.729,1.062,5.31-4.728,1.595-5.786 
          c-10.461-2.978-21.298,0.667-31.75-2C56.796,34.65,55.206,40.437,58.953,41.393L58.953,41.393z" fill="#ebc634"/>
      </g>
    </g>
    <g>
      <g>
        <path d="M67.047,61.893c5.853-2.381,11.144-5.683,16.467-9.053c4.292-2.716,9.378-4.772,12.076-9.326 
          c1.977-3.337-3.211-6.354-5.181-3.028c-2.034,3.434-6.615,5.2-9.924,7.174c-4.953,2.955-9.659,6.262-15.033,8.447 
          C61.918,57.545,63.462,63.351,67.047,61.893L67.047,61.893z" fill="#ebc634"/>
      </g>
    </g>
    <g>
      <g>
        <path d="M8.236,42.59c7.894,5.637,14.469,12.803,21.643,19.281c2.863,2.586,7.12-1.644,4.242-4.242 
          c-7.566-6.833-14.529-14.272-22.857-20.219C8.108,35.156,5.117,40.363,8.236,42.59L8.236,42.59z" fill="#ebc634"/>
      </g>
    </g>
    <g>
      <g>
        <path d="M27.393,90.547c2.324-9.471,2.837-19.781,7.448-28.533c1.802-3.42-3.377-6.453-5.181-3.028 
          c-4.896,9.295-5.586,19.917-8.052,29.967C20.685,92.71,26.471,94.304,27.393,90.547L27.393,90.547z" fill="#ebc634"/>
      </g>
    </g>
    <g>
      <g>
        <path d="M27.047,92.393c10.325-3.892,15.835-13.945,24.967-19.553c3.29-2.02,0.279-7.211-3.028-5.181 
          c-8.519,5.231-14.051,15.374-23.533,18.947C21.868,87.958,23.42,93.76,27.047,92.393L27.047,92.393z" fill="#ebc634"/>
      </g>
    </g>
    <g>
      <g>
        <path d="M49.5,73.75c4.771,0.18,8.681,4.222,11.879,7.371c4.123,4.062,8.979,7.344,13.25,11.25 
          c2.848,2.605,7.103-1.626,4.242-4.242c-4.904-4.486-10.244-8.428-15.068-13.007c-3.968-3.766-8.673-7.159-14.303-7.372 
          C45.629,67.604,45.644,73.604,49.5,73.75L49.5,73.75z" fill="#ebc634"/>
      </g>
    </g>
    <g>
      <g>
        <path d="M63.41,61.264c5.172,9.243,9.325,18.872,11.448,29.283c0.772,3.79,6.555,2.182,5.785-1.595 
          c-2.22-10.892-6.644-21.051-12.052-30.717C66.701,54.86,61.518,57.884,63.41,61.264L63.41,61.264z" fill="#ebc634"/>
      </g>
    </g>
  </g>
</svg>
