<svg xmlns="http://www.w3.org/2000/svg" xmlns:xlink="http://www.w3.org/1999/xlink" version="1.1" x="0px" y="0px" viewBox="0 0 100 125" style="enable-background:new 0 0 100 100;" xml:space="preserve"><style type="text/css">
	.st0{fill:#231F20;}
</style><path class="st0" d="M41.4,62.7c4.7,4.4,10.3,7.6,16.2,10.1c4.5,1.8,9.2,3.2,13.9,4.3c-5,0.9-10,2.3-14.7,4.3  c-1.7,0.7,1.4,4.2,2.8,3.6c6.3-2.6,13-4.3,19.8-5c1.9-0.2,0.1-2.9-1.4-3.5c-0.1-0.2-0.2-0.4-0.3-0.5c-2.9-4.1-5.6-8.3-8-12.7  c-0.5-0.9-1.5-1.9-2.6-1.9c-1.1,0-0.9,1.1-0.5,1.8c2.2,3.9,4.6,7.6,7.1,11.3c-10.3-2.4-20.9-5.2-29.2-12.1  c-4.2-3.5-7.8-7.9-10.8-12.5c-2.8-4.4-5.2-9.2-6.9-14.2c-2-5.7-3.1-11.7-3.5-17.7c-0.1-1.1-1.1-2.1-2-2.5c-0.7-0.3-1.8-0.5-1.7,0.6  c0.7,11.4,4.2,22.7,10.2,32.4C33.1,53.5,36.9,58.5,41.4,62.7z"/></svg>